# xmcd
#
# Track frame offsets:
# 150
# 20342
# 33108
# 48427
# 68354
# 82614
# 98855
# 111942
# 125168
# 134834
# 152671
# 164388
# 177802
# 193283
# 207217
#
# Disc length: 2930 seconds
#
#
# Revision: 0
# Processed by: cddbd v1.5.2PL0 Copyright (c) Steve Scherf et al.
# Submitted via: FreeRIP 2.70 
#
DISCID=c50b700f
DTITLE=Max Bygraves - The Essential Max Bygraves
DYEAR=2009
DGENRE=Easy Listening
TTITLE0=Back in My Childhood Days
TTITLE1=What a Wonderful World
TTITLE2=After You've Gone
TTITLE3=The Movies
TTITLE4=Edelweiss
TTITLE5=For the Good Times
TTITLE6=Oh You Beautiful Doll
TTITLE7=Tea For Two
TTITLE8=Little Sir Echo
TTITLE9=The Old Fashioned Way
TTITLE10=I Wish I Could Sing Like Jolson
TTITLE11=Gily Gilly
TTITLE12=You're A Pink Tooth Brush
TTITLE13=Friends And Neighbours
TTITLE14=(The Gang That Sang) Heart Of My Heart
EXTD=
EXTT0=
EXTT1=
EXTT2=
EXTT3=
EXTT4=
EXTT5=
EXTT6=
EXTT7=
EXTT8=
EXTT9=
EXTT10=
EXTT11=
EXTT12=
EXTT13=
EXTT14=
PLAYORDER=
